<?xml version="1.0" encoding="UTF-8"?>
<svg id="_레이어_1" xmlns="http://www.w3.org/2000/svg" version="1.1" viewBox="0 0 94 83.58">
  <!-- Generator: Adobe Illustrator 30.5.1, SVG Export Plug-In . SVG Version: 2.1.4 Build 3)  -->
  <defs>
    <style>
      .st0 {
        stroke: #f9ab00;
      }

      .st0, .st1, .st2, .st3, .st4, .st5 {
        fill: none;
        stroke-linecap: round;
        stroke-miterlimit: 1.15;
      }

      .st0, .st3, .st4 {
        stroke-width: 6.33px;
      }

      .st1 {
        stroke-width: 9.21px;
      }

      .st1, .st2 {
        stroke: #1e293b;
      }

      @media (prefers-color-scheme: dark) {
        .st1, .st2 { stroke: #cbd5e1; }
      }

      .st2 {
        stroke-width: 10.94px;
      }

      .st3 {
        stroke: #4285f4;
      }

      .st4 {
        stroke: #ea4335;
      }

      .st5 {
        isolation: isolate;
        opacity: .5;
        stroke: #94a3b8;
        stroke-width: 2.88px;
      }
    </style>
  </defs>
  <line class="st2" x1="68.8" y1="62.51" x2="84.41" y2="78.11"/>
  <path class="st1" d="M26.87,11.82c10.42-8.58,25.61-9.82,37.49-2.03,3.64,2.38,6.74,5.49,9.13,9.13"/>
  <path class="st1" d="M71.74,55.98c-9.18,11.52-25.49,15.39-39.12,8.44-5.95-3.04-10.8-7.88-13.83-13.83"/>
  <path class="st3" d="M3.17,27.48c20.19-18.89,65.92,12.22,86.11-6.67"/>
  <path class="st0" d="M3.95,37.53c20.19-18.89,65.92,12.22,86.11-6.67"/>
  <path class="st4" d="M4.72,47.57c20.19-18.89,65.92,12.22,86.11-6.67"/>
  <path class="st5" d="M33.96,16.13c4.83-3.38,10.86-4.55,16.6-3.21"/>
</svg>